<?xml version="1.0" encoding="UTF-8" standalone="no"?>
<svg
   xmlns:dc="http://purl.org/dc/elements/1.1/"
   xmlns:cc="http://creativecommons.org/ns#"
   xmlns:rdf="http://www.w3.org/1999/02/22-rdf-syntax-ns#"
   xmlns:svg="http://www.w3.org/2000/svg"
   xmlns="http://www.w3.org/2000/svg"
   xmlns:sodipodi="http://sodipodi.sourceforge.net/DTD/sodipodi-0.dtd"
   xmlns:inkscape="http://www.inkscape.org/namespaces/inkscape"
   version="1.1"
   id="svg2"
   xml:space="preserve"
   width="623.62201"
   height="419.20117"
   viewBox="0 0 623.62201 419.20117"
   sodipodi:docname="cgam-complete-helvetica-1.svg"
   inkscape:version="1.0.2-2 (e86c870879, 2021-01-15)"><metadata
     id="metadata8"><rdf:RDF><cc:Work
         rdf:about=""><dc:format>image/svg+xml</dc:format><dc:type
           rdf:resource="http://purl.org/dc/dcmitype/StillImage" /><dc:title></dc:title></cc:Work></rdf:RDF></metadata><defs
     id="defs6" /><sodipodi:namedview
     pagecolor="#ffffff"
     bordercolor="#666666"
     borderopacity="1"
     objecttolerance="10"
     gridtolerance="10"
     guidetolerance="10"
     inkscape:pageopacity="0"
     inkscape:pageshadow="2"
     inkscape:window-width="944"
     inkscape:window-height="480"
     id="namedview4"
     showgrid="false"
     inkscape:zoom="0.58791201"
     inkscape:cx="186.32127"
     inkscape:cy="264.41751"
     inkscape:window-x="0"
     inkscape:window-y="0"
     inkscape:window-maximized="0"
     inkscape:current-layer="g10" /><g
     id="g10"
     inkscape:groupmode="layer"
     inkscape:label="cgam-complete-helvetica-1"
     transform="matrix(1.3333333,0,0,1.3333333,0,8.4800293e-6)"><g
       id="g12"><g
         id="g14"><path
           d="m 248.031,260.789 c 0,11.738 -9.519,21.258 -21.258,21.258 -11.742,0 -21.261,-9.52 -21.261,-21.258 0,-11.742 9.519,-21.262 21.261,-21.262 11.739,0 21.258,9.52 21.258,21.262 z"
           style="fill:none;stroke:#000000;stroke-width:2.83465;stroke-linecap:butt;stroke-linejoin:miter;stroke-miterlimit:4;stroke-dasharray:none;stroke-opacity:1"
           id="path16" /></g><g
         id="g18"><path
           d="m 235.277,240.945 8.504,32.598"
           style="fill:none;stroke:#000000;stroke-width:2.83465;stroke-linecap:butt;stroke-linejoin:miter;stroke-miterlimit:4;stroke-dasharray:none;stroke-opacity:1"
           id="path20" /></g><g
         id="g22"><path
           d="m 218.27,240.945 -8.504,32.598"
           style="fill:none;stroke:#000000;stroke-width:2.83465;stroke-linecap:butt;stroke-linejoin:miter;stroke-miterlimit:4;stroke-dasharray:none;stroke-opacity:1"
           id="path24" /></g><g
         id="g26"><path
           d="m 340.867,204.805 c 0,8.218 -6.664,14.883 -14.883,14.883 -8.218,0 -14.882,-6.665 -14.882,-14.883 0,-8.219 6.664,-14.883 14.882,-14.883 8.219,0 14.883,6.664 14.883,14.883 z"
           style="fill:none;stroke:#000000;stroke-width:4.25124;stroke-linecap:square;stroke-linejoin:miter;stroke-miterlimit:4;stroke-dasharray:none;stroke-opacity:1"
           id="path28" /></g><g
         id="g30"><path
           d="m 317.48,192.758 19.844,19.84"
           style="fill:none;stroke:#000000;stroke-width:2.83465;stroke-linecap:butt;stroke-linejoin:miter;stroke-miterlimit:4;stroke-dasharray:none;stroke-opacity:1"
           id="path32" /></g><g
         id="g34"><path
           d="m 314.645,195.59 19.843,19.844"
           style="fill:none;stroke:#000000;stroke-width:2.83465;stroke-linecap:butt;stroke-linejoin:miter;stroke-miterlimit:4;stroke-dasharray:none;stroke-opacity:1"
           id="path36" /></g><g
         id="g38"><path
           d="M 317.48,215.434 337.324,195.59"
           style="fill:none;stroke:#000000;stroke-width:2.83465;stroke-linecap:butt;stroke-linejoin:miter;stroke-miterlimit:4;stroke-dasharray:none;stroke-opacity:1"
           id="path40" /></g><g
         id="g42"><path
           d="m 314.645,212.598 19.843,-19.84"
           style="fill:none;stroke:#000000;stroke-width:2.83465;stroke-linecap:butt;stroke-linejoin:miter;stroke-miterlimit:4;stroke-dasharray:none;stroke-opacity:1"
           id="path44" /></g><g
         id="g46"><path
           d="m 297.637,175.746 h 56.695 v 56.695 h -56.695 z"
           style="fill:none;stroke:#000000;stroke-width:2.83465;stroke-linecap:butt;stroke-linejoin:miter;stroke-miterlimit:4;stroke-dasharray:none;stroke-opacity:1"
           id="path48" /></g><g
         id="g50"
         transform="rotate(-90)"><path
           d="m -202.961,297.637 v -41.383 h 98.078 l -19.84,-15.309 19.84,-15.308 h -134.644"
           style="fill:none;stroke:#000000;stroke-width:2.26772;stroke-linecap:butt;stroke-linejoin:miter;stroke-miterlimit:4;stroke-dasharray:none;stroke-opacity:1"
           id="path52" /></g><g
         id="g54"
         transform="rotate(-90)"><path
           d="m -239.242,228.473 h 125.855 l -16.156,12.472 16.156,12.473 h -92.41 v 44.219"
           style="fill:none;stroke:#000000;stroke-width:1.134;stroke-linecap:butt;stroke-linejoin:miter;stroke-miterlimit:4;stroke-dasharray:6.804, 2.268;stroke-dashoffset:2.268;stroke-opacity:1"
           id="path56" /></g><g
         id="g58"
         transform="rotate(90)"><path
           d="m 90.707,-269.293 h 56.695 v 56.695 H 90.707 Z"
           style="fill:none;stroke:#000000;stroke-width:2.83465;stroke-linecap:butt;stroke-linejoin:miter;stroke-miterlimit:4;stroke-dasharray:none;stroke-opacity:1"
           id="path60" /></g><g
         id="g62"><path
           d="m 352.914,201.262 h 45.922 v 43.933"
           style="fill:none;stroke:#000000;stroke-width:2.26772;stroke-linecap:butt;stroke-linejoin:miter;stroke-miterlimit:4;stroke-dasharray:none;stroke-opacity:1"
           id="path64" /></g><g
         id="g66"><path
           d="m 352.914,198.426 h 48.754 v 46.769"
           style="fill:none;stroke:#000000;stroke-width:1.13386;stroke-linecap:butt;stroke-linejoin:miter;stroke-miterlimit:4;stroke-dasharray:none;stroke-opacity:1"
           id="path68" /></g><g
         id="g70"><path
           d="M 352.914,204.094 H 396 v 42.519"
           style="fill:none;stroke:#000000;stroke-width:1.13386;stroke-linecap:butt;stroke-linejoin:miter;stroke-miterlimit:4;stroke-dasharray:none;stroke-opacity:1"
           id="path72" /></g><g
         id="g74"><path
           d="m 439.371,223.938 v 73.699 l -42.519,-22.676 v -28.348 z"
           style="fill:none;stroke:#000000;stroke-width:2.83465;stroke-linecap:butt;stroke-linejoin:miter;stroke-miterlimit:4;stroke-dasharray:none;stroke-opacity:1"
           id="path76" /></g><g
         id="g78"><path
           d="m 248.031,260.789 h 148.821 m 42.519,0 h 28.344"
           style="fill:none;stroke:#000000;stroke-width:1.41732;stroke-linecap:butt;stroke-linejoin:miter;stroke-miterlimit:4;stroke-dasharray:none;stroke-opacity:1"
           id="path80" /></g><g
         id="g82"><path
           d="M 269.293,119.055 H 437.387 V 225.07"
           style="fill:none;stroke:#000000;stroke-width:2.26772;stroke-linecap:butt;stroke-linejoin:miter;stroke-miterlimit:4;stroke-dasharray:none;stroke-opacity:1"
           id="path84" /></g><g
         id="g86"><path
           d="M 269.293,116.219 H 440.219 V 223.938"
           style="fill:none;stroke:#000000;stroke-width:1.13386;stroke-linecap:butt;stroke-linejoin:miter;stroke-miterlimit:4;stroke-dasharray:none;stroke-opacity:1"
           id="path88" /></g><g
         id="g90"><path
           d="M 269.293,121.891 H 434.551 V 226.773"
           style="fill:none;stroke:#000000;stroke-width:1.13386;stroke-linecap:butt;stroke-linejoin:miter;stroke-miterlimit:4;stroke-dasharray:none;stroke-opacity:1"
           id="path92" /></g><g
         id="g94"><path
           d="m 170.078,119.055 h 42.52"
           style="fill:none;stroke:#000000;stroke-width:2.26772;stroke-linecap:butt;stroke-linejoin:miter;stroke-miterlimit:4;stroke-dasharray:none;stroke-opacity:1"
           id="path96" /></g><g
         id="g98"><path
           d="m 170.078,116.219 h 42.52"
           style="fill:none;stroke:#000000;stroke-width:1.13386;stroke-linecap:butt;stroke-linejoin:miter;stroke-miterlimit:4;stroke-dasharray:none;stroke-opacity:1"
           id="path100" /></g><g
         id="g102"><path
           d="m 170.078,121.891 h 42.52"
           style="fill:none;stroke:#000000;stroke-width:1.13386;stroke-linecap:butt;stroke-linejoin:miter;stroke-miterlimit:4;stroke-dasharray:none;stroke-opacity:1"
           id="path104" /></g><g
         id="g106"
         transform="rotate(90)"><path
           d="m 90.707,-170.078 h 56.695 v 56.691 H 90.707 Z"
           style="fill:none;stroke:#000000;stroke-width:2.83465;stroke-linecap:butt;stroke-linejoin:miter;stroke-miterlimit:4;stroke-dasharray:none;stroke-opacity:1"
           id="path108" /></g><g
         id="g110"
         transform="scale(-1,1)"><path
           d="m -106.301,41.102 c 0,11.742 -9.515,21.261 -21.258,21.261 -11.742,0 -21.261,-9.519 -21.261,-21.261 0,-11.743 9.519,-21.258 21.261,-21.258 11.743,0 21.258,9.515 21.258,21.258 z"
           style="fill:none;stroke:#000000;stroke-width:2.83465;stroke-linecap:butt;stroke-linejoin:miter;stroke-miterlimit:4;stroke-dasharray:none;stroke-opacity:1"
           id="path112" /></g><g
         id="g114"><path
           d="M 106.301,36.852 H 148.82"
           style="fill:none;stroke:#000000;stroke-width:1.41732;stroke-linecap:butt;stroke-linejoin:miter;stroke-miterlimit:4;stroke-dasharray:none;stroke-opacity:1"
           id="path116" /></g><g
         id="g118"><path
           d="m 110.551,45.355 h 14.172"
           style="fill:none;stroke:#000000;stroke-width:1.41732;stroke-linecap:round;stroke-linejoin:miter;stroke-miterlimit:4;stroke-dasharray:none;stroke-opacity:1"
           id="path120" /></g><g
         id="g122"><path
           d="m 121.891,41.102 h 11.336"
           style="fill:none;stroke:#000000;stroke-width:1.41732;stroke-linecap:round;stroke-linejoin:miter;stroke-miterlimit:4;stroke-dasharray:none;stroke-opacity:1"
           id="path124" /></g><g
         id="g126"><path
           d="m 116.219,53.859 h 11.34"
           style="fill:none;stroke:#000000;stroke-width:1.41732;stroke-linecap:round;stroke-linejoin:miter;stroke-miterlimit:4;stroke-dasharray:none;stroke-opacity:1"
           id="path128" /></g><g
         id="g130"><path
           d="m 121.891,58.109 h 11.336"
           style="fill:none;stroke:#000000;stroke-width:1.41732;stroke-linecap:round;stroke-linejoin:miter;stroke-miterlimit:4;stroke-dasharray:none;stroke-opacity:1"
           id="path132" /></g><g
         id="g134"><path
           d="m 126.852,49.605 h 15.589"
           style="fill:none;stroke:#000000;stroke-width:1.41732;stroke-linecap:round;stroke-linejoin:miter;stroke-miterlimit:4;stroke-dasharray:none;stroke-opacity:1"
           id="path136" /></g><g
         id="g138"><path
           d="m 112.676,49.605 h 7.09"
           style="fill:none;stroke:#000000;stroke-width:1.41732;stroke-linecap:round;stroke-linejoin:miter;stroke-miterlimit:4;stroke-dasharray:none;stroke-opacity:1"
           id="path140" /></g><g
         id="g142"><path
           d="m 132.52,53.859 h 7.085"
           style="fill:none;stroke:#000000;stroke-width:1.41732;stroke-linecap:round;stroke-linejoin:miter;stroke-miterlimit:4;stroke-dasharray:none;stroke-opacity:1"
           id="path144" /></g><g
         id="g146"><path
           d="m 130.395,45.355 h 14.171"
           style="fill:none;stroke:#000000;stroke-width:1.41732;stroke-linecap:round;stroke-linejoin:miter;stroke-miterlimit:4;stroke-dasharray:none;stroke-opacity:1"
           id="path148" /></g><g
         id="g150"><path
           d="m 109.844,41.102 h 7.086"
           style="fill:none;stroke:#000000;stroke-width:1.41732;stroke-linecap:round;stroke-linejoin:miter;stroke-miterlimit:4;stroke-dasharray:none;stroke-opacity:1"
           id="path152" /></g><g
         id="g154"><path
           d="m 138.188,41.102 h 7.089"
           style="fill:none;stroke:#000000;stroke-width:1.41732;stroke-linecap:round;stroke-linejoin:miter;stroke-miterlimit:4;stroke-dasharray:none;stroke-opacity:1"
           id="path156" /></g><g
         id="g158"><path
           d="m 90.707,0 v 28.348 h 19.844"
           style="fill:none;stroke:#000000;stroke-width:3.9685;stroke-linecap:butt;stroke-linejoin:miter;stroke-miterlimit:4;stroke-dasharray:none;stroke-opacity:1"
           id="path160" /></g><g
         id="g162"><path
           d="m 127.559,62.363 v 68.032 l 14.171,-25.512 14.176,25.512 V 28.348 h -11.34"
           style="fill:none;stroke:#000000;stroke-width:1.41732;stroke-linecap:butt;stroke-linejoin:miter;stroke-miterlimit:4;stroke-dasharray:none;stroke-opacity:1"
           id="path164" /></g><g
         id="g166"><path
           d="m 42.52,52.441 v 77.954 l 14.171,-25.512 14.176,25.512 V 51.023 h 38.266"
           style="fill:none;stroke:#000000;stroke-width:1.41732;stroke-linecap:butt;stroke-linejoin:miter;stroke-miterlimit:4;stroke-dasharray:none;stroke-opacity:1"
           id="path168" /></g><g
         id="g170"><path
           d="M 0,119.055 H 28.348"
           style="fill:none;stroke:#000000;stroke-width:2.26772;stroke-linecap:butt;stroke-linejoin:miter;stroke-miterlimit:4;stroke-dasharray:none;stroke-opacity:1"
           id="path172" /></g><g
         id="g174"><path
           d="M 0,116.219 H 28.348"
           style="fill:none;stroke:#000000;stroke-width:1.13386;stroke-linecap:butt;stroke-linejoin:miter;stroke-miterlimit:4;stroke-dasharray:none;stroke-opacity:1"
           id="path176" /></g><g
         id="g178"><path
           d="M 0,121.891 H 28.348"
           style="fill:none;stroke:#000000;stroke-width:1.13386;stroke-linecap:butt;stroke-linejoin:miter;stroke-miterlimit:4;stroke-dasharray:none;stroke-opacity:1"
           id="path180" /></g><g
         id="g182"
         transform="rotate(-90)"><path
           d="m -282.047,225.637 h -28.348"
           style="fill:none;stroke:#000000;stroke-width:2.26772;stroke-linecap:butt;stroke-linejoin:miter;stroke-miterlimit:4;stroke-dasharray:none;stroke-opacity:1"
           id="path184" /></g><g
         id="g186"
         transform="rotate(-90)"><path
           d="m -310.395,228.473 h 28.348"
           style="fill:none;stroke:#000000;stroke-width:1.13386;stroke-linecap:butt;stroke-linejoin:miter;stroke-miterlimit:4;stroke-dasharray:6.80315, 2.26772;stroke-dashoffset:2.65748;stroke-opacity:1"
           id="path188" /></g><text
         transform="translate(225.11286,86.456712)"
         style="font-variant:normal;font-weight:normal;font-size:16px;font-family:Helvetica;-inkscape-font-specification:Helvetica;writing-mode:lr-tb;fill:#000000;fill-opacity:1;fill-rule:nonzero;stroke:none"
         id="text202"><tspan
           x="0 10.656 21.312"
           y="0"
           sodipodi:role="line"
           id="tspan190">APH</tspan><tspan
           x="54.284721 65.836723"
           y="84.742493"
           sodipodi:role="line"
           id="tspan192">CC</tspan><tspan
           x="141.90805 152.56404 163.22005 12.110032 22.766031"
           y="206.84509"
           sodipodi:role="line"
           id="tspan194">EXPAC</tspan><tspan
           x="-149.04871 -137.4967 -125.9447 -115.2887"
           y="77.868721"
           sodipodi:role="line"
           id="tspan196">HRSG</tspan><tspan
           x="-60.703423 -50.047424"
           y="1.6e-05"
           sodipodi:role="line"
           id="tspan198">EV</tspan><tspan
           x="-223.78918 -213.13318 -201.58118"
           y="-0.2968784"
           sodipodi:role="line"
           id="tspan200">ECO</tspan></text><g
         id="g204"
         transform="matrix(0,1,1,0,0,0)"><path
           d="m 175.746,324.852 h -35.43"
           style="fill:none;stroke:#000000;stroke-width:2.26772;stroke-linecap:butt;stroke-linejoin:miter;stroke-miterlimit:4;stroke-dasharray:none;stroke-opacity:1"
           id="path206" /></g><g
         id="g208"
         transform="matrix(0,1,1,0,0,0)"><path
           d="m 140.316,327.684 h 35.43"
           style="fill:none;stroke:#000000;stroke-width:1.13386;stroke-linecap:butt;stroke-linejoin:miter;stroke-miterlimit:4;stroke-dasharray:none;stroke-opacity:1"
           id="path210" /></g><g
         id="g212"
         transform="matrix(0,1,1,0,0,0)"><path
           d="m 140.316,314.645 h 19.84"
           style="fill:none;stroke:#000000;stroke-width:1.13386;stroke-linecap:butt;stroke-linejoin:miter;stroke-miterlimit:4;stroke-dasharray:none;stroke-opacity:1"
           id="path214" /></g><path
         d="m 309.828,153.07 h 1.133 l 3.684,6.493 3.687,-6.493 h 1.133 l -4.82,8.504 z"
         style="fill:#000000;fill-opacity:1;fill-rule:nonzero;stroke:none"
         id="path216" /><g
         id="g218"
         transform="rotate(-90)"><path
           d="m -310.395,218.27 h 19.844"
           style="fill:none;stroke:#000000;stroke-width:1.13386;stroke-linecap:butt;stroke-linejoin:miter;stroke-miterlimit:4;stroke-dasharray:none;stroke-opacity:1"
           id="path220" /></g><path
         d="m 213.449,297.637 h 1.133 l 3.688,-6.492 3.683,6.492 h 1.133 l -4.816,-8.504 z"
         style="fill:#000000;fill-opacity:1;fill-rule:nonzero;stroke:none"
         id="path222" /><g
         id="g224"
         transform="scale(-1)"><path
           d="M -21.262,-130.395 H -1.418"
           style="fill:none;stroke:#000000;stroke-width:1.13386;stroke-linecap:butt;stroke-linejoin:miter;stroke-miterlimit:4;stroke-dasharray:none;stroke-opacity:1"
           id="path226" /></g><path
         d="m 8.504,135.211 v -1.133 l -6.492,-3.683 6.492,-3.688 v -1.133 L 0,130.395 Z"
         style="fill:#000000;fill-opacity:1;fill-rule:nonzero;stroke:none"
         id="path228" /><g
         id="g230"
         transform="rotate(90)"><path
           d="m 28.348,-42.52 h 19.84"
           style="fill:none;stroke:#000000;stroke-width:1.13386;stroke-linecap:butt;stroke-linejoin:miter;stroke-miterlimit:4;stroke-dasharray:none;stroke-opacity:1"
           id="path232" /></g><path
         d="m 47.34,41.102 h -1.137 l -3.683,6.492 -3.684,-6.492 h -1.137 l 4.821,8.503 z"
         style="fill:#000000;fill-opacity:1;fill-rule:nonzero;stroke:none"
         id="path234" /><g
         id="g236"
         transform="rotate(-90)"><path
           d="M -21.262,99.211 H -1.418"
           style="fill:none;stroke:#000000;stroke-width:1.13386;stroke-linecap:butt;stroke-linejoin:miter;stroke-miterlimit:4;stroke-dasharray:none;stroke-opacity:1"
           id="path238" /></g><path
         d="m 94.395,8.504 h 1.132 l 3.684,-6.492 3.687,6.492 h 1.133 L 99.211,0 Z"
         style="fill:#000000;fill-opacity:1;fill-rule:nonzero;stroke:none"
         id="path240" /><g
         id="g242"><path
           d="M 28.348,174.613 H 0"
           style="fill:none;stroke:#000000;stroke-width:2.26772;stroke-linecap:butt;stroke-linejoin:miter;stroke-miterlimit:4;stroke-dasharray:none;stroke-opacity:1"
           id="path244" /></g><g
         id="g246"><path
           d="M 0,177.449 H 28.348"
           style="fill:none;stroke:#000000;stroke-width:1.13386;stroke-linecap:butt;stroke-linejoin:miter;stroke-miterlimit:4;stroke-dasharray:6.80315, 2.26772;stroke-dashoffset:2.65748;stroke-opacity:1"
           id="path248" /></g><g
         id="g250"><path
           d="M 0,204.094 H 28.348"
           style="fill:none;stroke:#000000;stroke-width:2.26772;stroke-linecap:butt;stroke-linejoin:miter;stroke-miterlimit:4;stroke-dasharray:none;stroke-opacity:1"
           id="path252" /></g><g
         id="g254"><path
           d="M 0,201.258 H 28.348"
           style="fill:none;stroke:#000000;stroke-width:1.13386;stroke-linecap:butt;stroke-linejoin:miter;stroke-miterlimit:4;stroke-dasharray:none;stroke-opacity:1"
           id="path256" /></g><g
         id="g258"><path
           d="M 0,206.93 H 28.348"
           style="fill:none;stroke:#000000;stroke-width:1.13386;stroke-linecap:butt;stroke-linejoin:miter;stroke-miterlimit:4;stroke-dasharray:none;stroke-opacity:1"
           id="path260" /></g><g
         id="g262"><path
           d="M 28.348,188.789 H 0"
           style="fill:none;stroke:#000000;stroke-width:2.26772;stroke-linecap:butt;stroke-linejoin:miter;stroke-miterlimit:4;stroke-dasharray:none;stroke-opacity:1"
           id="path264" /></g><g
         id="g266"><path
           d="M 0,191.621 H 28.348"
           style="fill:none;stroke:#000000;stroke-width:1.13386;stroke-linecap:butt;stroke-linejoin:miter;stroke-miterlimit:4;stroke-dasharray:none;stroke-opacity:1"
           id="path268" /></g><g
         id="g270"><path
           d="m 99.211,175.75 h 28.348"
           style="fill:none;stroke:#000000;stroke-width:1.41732;stroke-linecap:butt;stroke-linejoin:miter;stroke-miterlimit:4;stroke-dasharray:none;stroke-opacity:1"
           id="path272" /></g><g
         id="g274"><path
           d="m 99.211,189.922 h 28.348"
           style="fill:none;stroke:#000000;stroke-width:3.9685;stroke-linecap:butt;stroke-linejoin:miter;stroke-miterlimit:4;stroke-dasharray:none;stroke-opacity:1"
           id="path276" /></g><text
         transform="translate(38.267722,180.00001)"
         style="font-variant:normal;font-weight:normal;font-size:12px;font-family:Helvetica;-inkscape-font-specification:Helvetica;writing-mode:lr-tb;fill:#000000;fill-opacity:1;fill-rule:nonzero;stroke:none"
         id="text288"><tspan
           x="0 7.9920001 10.656"
           y="0"
           sodipodi:role="line"
           id="tspan278">Air</tspan><tspan
           x="0 7.3200002 13.992 20.664"
           y="14.173236"
           sodipodi:role="line"
           id="tspan280">Fuel</tspan><tspan
           x="0 7.3200002 9.9840002 16.656 23.327999 26.652 33.324001 39.995998"
           y="28.346449"
           sodipodi:role="line"
           id="tspan282">Flue gas</tspan><tspan
           x="99.212601 110.5286 117.20061 120.5246 127.1966"
           y="5.3290705e-15"
           sodipodi:role="line"
           id="tspan284">Water</tspan><tspan
           x="99.212601 107.20461 110.5286 117.20061 123.8726"
           y="14.173236"
           sodipodi:role="line"
           id="tspan286">Steam</tspan></text><g
         id="g290"><path
           d="m 446.457,269.293 h 19.844"
           style="fill:none;stroke:#000000;stroke-width:1.13386;stroke-linecap:butt;stroke-linejoin:miter;stroke-miterlimit:4;stroke-dasharray:none;stroke-opacity:1"
           id="path292" /></g><path
         d="m 459.211,264.473 v 1.132 l 6.496,3.688 -6.496,3.684 v 1.132 l 8.504,-4.816 z"
         style="fill:#000000;fill-opacity:1;fill-rule:nonzero;stroke:none"
         id="path294" /><text
         transform="translate(230.81595,310.39372)"
         style="font-variant:normal;font-weight:normal;font-size:16px;font-family:Helvetica;-inkscape-font-specification:Helvetica;writing-mode:lr-tb;fill:#000000;fill-opacity:1;fill-rule:nonzero;stroke:none"
         id="text316"><tspan
           x="0"
           y="0"
           id="tspan296">1</tspan><tspan
           x="1.2031168"
           y="-77.952751"
           id="tspan298">2</tspan><tspan
           x="41.108894"
           y="-110.84024"
           id="tspan300">3</tspan><tspan
           x="140.36446"
           y="-114.80315"
           id="tspan302">4</tspan><tspan
           x="55.403214 -43.972786 -141.3338 -132.43779"
           y="-197.29694"
           sodipodi:role="line"
           id="tspan304">566P</tspan><tspan
           x="-228.22929"
           y="-197.00787"
           id="tspan306">7</tspan><tspan
           x="-186.07877 -157.72678 -148.83076"
           y="-234.14734"
           sodipodi:role="line"
           id="tspan308">88P</tspan><tspan
           x="-154.20622"
           y="-299.10464"
           id="tspan310">9</tspan><tspan
           x="99.212639 108.10863"
           y="-158.78969"
           sodipodi:role="line"
           id="tspan312">10</tspan><tspan
           x="136.27072"
           y="-58.110313"
           id="tspan314"> </tspan></text><g
         id="g318"
         transform="rotate(90)"><path
           d="m 90.707,-85.039 h 56.695 v 56.691 H 90.707 Z"
           style="fill:none;stroke:#000000;stroke-width:2.83465;stroke-linecap:butt;stroke-linejoin:miter;stroke-miterlimit:4;stroke-dasharray:none;stroke-opacity:1"
           id="path320" /></g><g
         id="g322"><path
           d="m 85.039,119.055 h 28.348"
           style="fill:none;stroke:#000000;stroke-width:2.26772;stroke-linecap:butt;stroke-linejoin:miter;stroke-miterlimit:4;stroke-dasharray:none;stroke-opacity:1"
           id="path324" /></g><g
         id="g326"><path
           d="m 85.039,116.219 h 28.348"
           style="fill:none;stroke:#000000;stroke-width:1.13386;stroke-linecap:butt;stroke-linejoin:miter;stroke-miterlimit:4;stroke-dasharray:none;stroke-opacity:1"
           id="path328" /></g><g
         id="g330"><path
           d="m 85.039,121.891 h 28.348"
           style="fill:none;stroke:#000000;stroke-width:1.13386;stroke-linecap:butt;stroke-linejoin:miter;stroke-miterlimit:4;stroke-dasharray:none;stroke-opacity:1"
           id="path332" /></g><g
         id="g334"><path
           d="m 318.898,3.117 v 84.758 h 99.211 V 2.836"
           style="fill:none;stroke:#000000;stroke-width:1.41732;stroke-linecap:butt;stroke-linejoin:miter;stroke-miterlimit:4;stroke-dasharray:none;stroke-opacity:1"
           id="path336" /></g><g
         id="g338"
         transform="rotate(90)"><path
           d="m 9.164,-318.898 3.024,-3.024 -10.583,3.024 10.583,3.023 z"
           style="fill:#000000;fill-opacity:1;fill-rule:evenodd;stroke:#000000;stroke-width:0.806299;stroke-linecap:butt;stroke-linejoin:miter;stroke-miterlimit:4;stroke-dasharray:none;stroke-opacity:1"
           id="path340" /></g><g
         id="g342"><path
           d="m 374.238,87.875 h 28.344"
           style="fill:none;stroke:#000000;stroke-width:1.41732;stroke-linecap:butt;stroke-linejoin:miter;stroke-miterlimit:4;stroke-dasharray:none;stroke-opacity:1"
           id="path344" /></g><g
         id="g346"><path
           d="m 396.535,87.875 -3.023,3.023 10.582,-3.023 -10.582,-3.023 z"
           style="fill:#000000;fill-opacity:1;fill-rule:evenodd;stroke:#000000;stroke-width:0.806299;stroke-linecap:butt;stroke-linejoin:miter;stroke-miterlimit:4;stroke-dasharray:none;stroke-opacity:1"
           id="path348" /></g><g
         id="g350"><path
           d="m 318.898,22.676 99.211,28.347"
           style="fill:none;stroke:#000000;stroke-width:1.41732;stroke-linecap:butt;stroke-linejoin:miter;stroke-miterlimit:4;stroke-dasharray:none;stroke-opacity:1"
           id="path352" /></g><g
         id="g354"><path
           d="M 418.109,82.203 389.766,65.195"
           style="fill:none;stroke:#000000;stroke-width:1.41732;stroke-linecap:butt;stroke-linejoin:miter;stroke-miterlimit:4;stroke-dasharray:none;stroke-opacity:1"
           id="path356" /></g><g
         id="g358"><path
           d="M 389.766,56.691 H 318.898"
           style="fill:none;stroke:#000000;stroke-width:1.41732;stroke-linecap:butt;stroke-linejoin:miter;stroke-miterlimit:4;stroke-dasharray:none;stroke-opacity:1"
           id="path360" /></g><g
         id="g362"><path
           d="m 390.613,65.195 c 0,0.473 -0.379,0.852 -0.847,0.852 -0.473,0 -0.852,-0.379 -0.852,-0.852 0,-0.468 0.379,-0.847 0.852,-0.847 0.468,0 0.847,0.379 0.847,0.847 z"
           style="fill:#000000;fill-opacity:1;fill-rule:nonzero;stroke:#000000;stroke-width:1.41732;stroke-linecap:butt;stroke-linejoin:miter;stroke-miterlimit:4;stroke-dasharray:none;stroke-opacity:1"
           id="path364" /></g><g
         id="g366"><path
           d="m 418.961,82.203 c 0,0.473 -0.383,0.852 -0.852,0.852 -0.468,0 -0.847,-0.379 -0.847,-0.852 0,-0.469 0.379,-0.848 0.847,-0.848 0.469,0 0.852,0.379 0.852,0.848 z"
           style="fill:#000000;fill-opacity:1;fill-rule:nonzero;stroke:#000000;stroke-width:1.41732;stroke-linecap:butt;stroke-linejoin:miter;stroke-miterlimit:4;stroke-dasharray:none;stroke-opacity:1"
           id="path368" /></g><g
         id="g370"><path
           d="m 418.961,51.023 c 0,0.469 -0.383,0.852 -0.852,0.852 -0.468,0 -0.847,-0.383 -0.847,-0.852 0,-0.468 0.379,-0.851 0.847,-0.851 0.469,0 0.852,0.383 0.852,0.851 z"
           style="fill:#000000;fill-opacity:1;fill-rule:nonzero;stroke:#000000;stroke-width:1.41732;stroke-linecap:butt;stroke-linejoin:miter;stroke-miterlimit:4;stroke-dasharray:none;stroke-opacity:1"
           id="path372" /></g><g
         id="g374"><path
           d="m 390.613,56.691 c 0,0.473 -0.379,0.852 -0.847,0.852 -0.473,0 -0.852,-0.379 -0.852,-0.852 0,-0.468 0.379,-0.847 0.852,-0.847 0.468,0 0.847,0.379 0.847,0.847 z"
           style="fill:#000000;fill-opacity:1;fill-rule:nonzero;stroke:#000000;stroke-width:1.41732;stroke-linecap:butt;stroke-linejoin:miter;stroke-miterlimit:4;stroke-dasharray:none;stroke-opacity:1"
           id="path376" /></g><g
         id="g378"><path
           d="m 319.75,56.691 c 0,0.473 -0.383,0.852 -0.852,0.852 -0.468,0 -0.851,-0.379 -0.851,-0.852 0,-0.468 0.383,-0.847 0.851,-0.847 0.469,0 0.852,0.379 0.852,0.847 z"
           style="fill:#000000;fill-opacity:1;fill-rule:nonzero;stroke:#000000;stroke-width:1.41732;stroke-linecap:butt;stroke-linejoin:miter;stroke-miterlimit:4;stroke-dasharray:none;stroke-opacity:1"
           id="path380" /></g><g
         id="g382"><path
           d="m 319.75,22.676 c 0,0.472 -0.383,0.851 -0.852,0.851 -0.468,0 -0.851,-0.379 -0.851,-0.851 0,-0.469 0.383,-0.848 0.851,-0.848 0.469,0 0.852,0.379 0.852,0.848 z"
           style="fill:#000000;fill-opacity:1;fill-rule:nonzero;stroke:#000000;stroke-width:1.41732;stroke-linecap:butt;stroke-linejoin:miter;stroke-miterlimit:4;stroke-dasharray:none;stroke-opacity:1"
           id="path384" /></g><g
         id="g386"><path
           d="m 390.613,42.805 c 0,0.468 -0.379,0.847 -0.847,0.847 -0.473,0 -0.852,-0.379 -0.852,-0.847 0,-0.473 0.379,-0.852 0.852,-0.852 0.468,0 0.847,0.379 0.847,0.852 z"
           style="fill:#000000;fill-opacity:1;fill-rule:nonzero;stroke:#000000;stroke-width:1.41732;stroke-linecap:butt;stroke-linejoin:miter;stroke-miterlimit:4;stroke-dasharray:none;stroke-opacity:1"
           id="path388" /></g><text
         transform="translate(421.89346,55.148641)"
         style="font-variant:normal;font-weight:normal;font-size:12px;font-family:Helvetica;-inkscape-font-specification:Helvetica;writing-mode:lr-tb;fill:#000000;fill-opacity:1;fill-rule:nonzero;stroke:none"
         id="text402"><tspan
           x="0"
           y="0"
           id="tspan390">7</tspan><tspan
           x="-35.433083 -28.761084"
           y="-15.463584"
           sodipodi:role="line"
           id="tspan392">6P</tspan><tspan
           x="-113.52317"
           y="-28.34646"
           id="tspan394">6</tspan><tspan
           x="0.0058559999"
           y="31.181101"
           id="tspan396">8</tspan><tspan
           x="-50.514458 -43.842457"
           y="20.090555"
           sodipodi:role="line"
           id="tspan398">8P</tspan><tspan
           x="-113.57005"
           y="5.669292"
           id="tspan400">9</tspan></text><g
         id="g404"><path
           d="M 389.766,42.52 V 56.691"
           style="fill:none;stroke:#000000;stroke-width:0.566929;stroke-linecap:butt;stroke-linejoin:miter;stroke-miterlimit:4;stroke-dasharray:none;stroke-opacity:1"
           id="path406" /></g><text
         transform="translate(356.28526,53.659066)"
         style="font-variant:normal;font-weight:normal;font-size:12px;font-family:Helvetica;-inkscape-font-specification:Helvetica;writing-mode:lr-tb;fill:#000000;fill-opacity:1;fill-rule:nonzero;stroke:none"
         id="text410"><tspan
           x="0 7.9920001 10.656 17.327999 23.327999"
           y="0"
           sodipodi:role="line"
           id="tspan408">Pinch</tspan></text><text
         transform="translate(345.35552,12.671897)"
         style="font-variant:normal;font-weight:normal;font-size:16px;font-family:Helvetica;-inkscape-font-specification:Helvetica;writing-mode:lr-tb;fill:#000000;fill-opacity:1;fill-rule:nonzero;stroke:none"
         id="text414"><tspan
           x="0 11.552 23.104 33.759998"
           y="0"
           sodipodi:role="line"
           id="tspan412">HRSG</tspan></text><text
         transform="translate(5.59058e-6,228.18897)"
         style="font-variant:normal;font-weight:normal;font-size:12px;font-family:Helvetica;-inkscape-font-specification:Helvetica;writing-mode:lr-tb;fill:#000000;fill-opacity:1;fill-rule:nonzero;stroke:none"
         id="text444"><tspan
           x="0 7.9920001"
           y="0"
           sodipodi:role="line"
           id="tspan416">AC</tspan><tspan
           x="0 7.9920001 15.984"
           y="14.173236"
           sodipodi:role="line"
           id="tspan418">APH</tspan><tspan
           x="0 8.6639996"
           y="28.346472"
           sodipodi:role="line"
           id="tspan420">CC</tspan><tspan
           x="0 7.9920001 15.984"
           y="42.519707"
           sodipodi:role="line"
           id="tspan422">EXP</tspan><tspan
           x="0 7.9920001"
           y="56.692944"
           sodipodi:role="line"
           id="tspan424">EV</tspan><tspan
           x="0 7.9920001 16.656"
           y="70.866158"
           sodipodi:role="line"
           id="tspan426">ECO</tspan><tspan
           x="0 8.6639996 17.327999 25.32"
           y="83.622086"
           sodipodi:role="line"
           id="tspan428">HRSG</tspan><tspan
           x="38.267712 46.259712 48.923714 52.919712 56.243713 62.243713 68.91571 78.947716 85.619713 89.615715 96.287712 102.28771 108.28771 114.99571"
           y="1.2e-05"
           sodipodi:role="line"
           id="tspan430">Air compressor</tspan><tspan
           x="38.267712 46.259712 48.923714 52.919712 56.243713 62.91571 66.947716 73.619713 80.29171 86.963715 93.635712 96.959709 103.63171"
           y="14.173248"
           sodipodi:role="line"
           id="tspan432">Air preheater</tspan><tspan
           x="38.267712 46.931713 53.60371 63.599712 70.271713 76.979713 82.979713 86.303711 88.967712 95.639709 102.31171 105.63571 111.63571 118.30771 124.97971 134.97571 141.68372 148.35571"
           y="28.346483"
           sodipodi:role="line"
           id="tspan434">Combustion chamber</tspan><tspan
           x="38.267712 46.259712 52.259712 58.931713 65.603714 72.275711 78.983711 85.655708"
           y="42.519718"
           sodipodi:role="line"
           id="tspan436">Expander</tspan><tspan
           x="38.267712 46.259712 52.259712 58.931713 65.603714 72.275711 76.307709 82.979713 86.303711 92.975716"
           y="56.692955"
           sodipodi:role="line"
           id="tspan438">Evaporator</tspan><tspan
           x="38.267712 46.259712 52.259712 58.931713 65.603714 72.275711 82.307709 84.97171 90.97171 97.643715"
           y="70.866165"
           sodipodi:role="line"
           id="tspan440">Economizer</tspan><tspan
           x="38.267712 46.931713 53.60371 60.275711 63.599712 67.595711 71.627708 78.299713 84.299713 90.97171 96.97171 103.64371 107.63971 113.63971 116.96371 122.96371 126.28771 132.95972 139.63171 149.66371 152.98772 159.65971 166.33171 173.00371 179.6757 183.70772 190.37971 193.7037 200.37572"
           y="83.622093"
           sodipodi:role="line"
           id="tspan442">Heat-recovery steam generator</tspan></text><path
         d="m 453.219,248.949 h 1.016 v 1.031 h -1.016 z"
         style="fill:#000000;fill-opacity:1;fill-rule:nonzero;stroke:none"
         id="path446" /><path
         d="m 456.02,243.34 v 0.875 l 3.281,1.609 c 0.906,0.453 3.469,1.719 4.094,1.922 v 0.016 c -0.172,-0.032 -0.485,-0.032 -0.485,-0.032 -0.25,0 -1.14,0.032 -2.859,0.125 l -4.031,0.266 v 1 l 3.265,1.609 c 0.938,0.454 3.344,1.641 4.094,1.875 v 0.016 c -0.109,-0.016 -0.391,-0.016 -0.688,-0.016 -0.968,0 -2.203,0.079 -2.828,0.125 l -3.843,0.25 v 1.016 l 8.296,-0.594 v -0.984 l -3.937,-1.922 -1.719,-0.828 c -0.422,-0.203 -1.344,-0.641 -1.765,-0.797 0,0 0.312,0.031 0.468,0.031 0.782,0 1.875,-0.078 2.813,-0.125 l 4.14,-0.281 v -1.047 z"
         style="fill:#000000;fill-opacity:1;fill-rule:nonzero;stroke:none"
         id="path448" /><path
         d="m 461.938,244.371 h 4.171 v -0.672 h -2.296 c -0.86,0 -1.422,-0.437 -1.422,-1.125 0,-0.531 0.328,-0.859 0.828,-0.859 h 2.89 v -0.656 h -3.156 c -0.687,0 -1.14,0.515 -1.14,1.312 0,0.625 0.234,1.031 0.828,1.391 h -0.703 z"
         style="fill:#000000;fill-opacity:1;fill-rule:nonzero;stroke:none"
         id="path450" /><path
         d="m 464.25,236.406 c -0.641,0 -1.031,0.047 -1.344,0.172 -0.672,0.266 -1.093,0.906 -1.093,1.688 0,1.172 0.89,1.922 2.265,1.922 1.375,0 2.219,-0.735 2.219,-1.907 0,-0.953 -0.547,-1.609 -1.453,-1.781 v 0.672 c 0.547,0.187 0.828,0.562 0.828,1.094 0,0.422 -0.188,0.781 -0.531,1 -0.25,0.156 -0.485,0.218 -0.891,0.218 z m -0.547,3.063 c -0.765,-0.047 -1.281,-0.516 -1.281,-1.188 0,-0.656 0.547,-1.156 1.234,-1.156 0.016,0 0.032,0 0.047,0 z"
         style="fill:#000000;fill-opacity:1;fill-rule:nonzero;stroke:none"
         id="path452" /><path
         d="m 461.938,234.039 v 0.688 h -1.157 v 0.671 h 1.157 v 0.563 h 0.531 v -0.563 h 3.156 c 0.422,0 0.672,-0.296 0.672,-0.812 0,-0.156 -0.016,-0.313 -0.063,-0.547 h -0.562 c 0.031,0.094 0.047,0.203 0.047,0.328 0,0.281 -0.094,0.36 -0.375,0.36 h -2.875 v -0.688 z"
         style="fill:#000000;fill-opacity:1;fill-rule:nonzero;stroke:none"
         id="path454" /><path
         d="m 460.41,221.973 c 0,-0.172 0,-0.391 -0.219,-0.391 -0.218,0 -0.218,0.203 -0.218,0.391 v 7.031 c 0,0.172 0,0.391 0.203,0.391 0.234,0 0.234,-0.204 0.234,-0.391 z m 2.297,0 c 0,-0.172 0,-0.391 -0.219,-0.391 -0.234,0 -0.234,0.203 -0.234,0.391 v 7.031 c 0,0.172 0,0.391 0.219,0.391 0.234,0 0.234,-0.204 0.234,-0.391 z"
         style="fill:#000000;fill-opacity:1;fill-rule:nonzero;stroke:none"
         id="path456" /><path
         d="m 458.191,216.543 c -0.765,-0.297 -1.281,-1.031 -1.281,-1.828 0,-0.61 0.36,-1.188 1.125,-1.188 0.813,0 1.469,0.547 1.61,1.203 0.015,0.047 0.062,0.813 0.078,0.922 h 0.718 v -0.843 c 0,-1.235 1.047,-1.532 1.719,-1.532 0.969,0 1.688,0.594 1.688,1.453 0,0.766 -0.375,1.704 -1.235,2.25 l 0.703,0.141 c 1.063,-0.781 1.25,-1.828 1.25,-2.422 0,-1.39 -1.14,-2.453 -2.406,-2.453 -0.922,0 -1.734,0.609 -2.078,1.625 -0.453,-0.828 -1.25,-1.297 -2.047,-1.297 -1.015,0 -1.797,0.969 -1.797,2.125 0,0.953 0.532,1.813 1.313,2.266 z"
         style="fill:#000000;fill-opacity:1;fill-rule:nonzero;stroke:none"
         id="path458" /><path
         d="m 460.426,206.395 c -0.813,0 -1.735,0.046 -2.578,0.343 -1.344,0.516 -1.61,1.453 -1.61,2.094 0,0.766 0.391,1.516 1.344,1.969 0.844,0.39 1.813,0.469 2.844,0.469 1.297,0 2.031,-0.11 2.875,-0.5 0.781,-0.36 1.265,-1.125 1.265,-1.938 0,-0.781 -0.421,-1.531 -1.25,-1.937 -0.859,-0.407 -1.718,-0.5 -2.89,-0.5 z m 3.422,2.437 c 0,1.516 -2.453,1.516 -3.578,1.516 -0.766,0 -1.5,0 -2.188,-0.203 -0.844,-0.297 -1.125,-0.813 -1.125,-1.313 0,-1.531 2.219,-1.531 3.313,-1.531 0.765,0 1.562,0 2.296,0.219 1.157,0.328 1.282,1 1.282,1.312 z"
         style="fill:#000000;fill-opacity:1;fill-rule:nonzero;stroke:none"
         id="path460" /><path
         d="m 464.316,198.316 -7.296,-2.453 h 7.296 v -1.047 h -8.718 v 1.547 l 7.593,2.532 -7.593,2.578 v 1.547 h 8.718 v -1.063 h -7.296 l 7.296,-2.469 z"
         style="fill:#000000;fill-opacity:1;fill-rule:nonzero;stroke:none"
         id="path462" /><path
         d="m 464.316,185.063 -8.718,-2.219 v 1.25 l 7.078,1.594 -7.078,1.984 v 1.203 l 7.078,1.938 -7.078,1.64 v 1.235 l 8.718,-2.235 v -1.219 l -7.156,-1.953 7.156,-2 z"
         style="fill:#000000;fill-opacity:1;fill-rule:nonzero;stroke:none"
         id="path464" /><path
         d="m 308.609,6.402 h 1.047 c 0.157,0 0.297,0.016 0.438,0.016 h 1.562 l 0.157,-0.75 h -7.141 l -0.141,0.75 h 1.563 c 0.156,0 0.297,-0.016 0.437,-0.016 h 1.047 l -1.578,7.5 h 1.016 z"
         style="fill:#000000;fill-opacity:1;fill-rule:nonzero;stroke:none"
         id="path466" /><path
         d="m 375.707,94.926 h -1.094 l -3.843,8.297 h 8.765 z m -1.469,2.75 c 0.422,-0.953 0.672,-1.5 0.797,-1.891 0.11,0.297 0.25,0.594 0.438,1.047 0.14,0.328 0.375,0.859 0.437,1 l 2.047,4.422 h -5.812 z"
         style="fill:#000000;fill-opacity:1;fill-rule:nonzero;stroke:none"
         id="path468" /><path
         d="m 384.133,92.125 h 1.031 v 1.016 h -1.031 z"
         style="fill:#000000;fill-opacity:1;fill-rule:nonzero;stroke:none"
         id="path470" /><path
         d="m 388.914,94.926 h -1.016 l -0.781,3.625 h -3.984 l 0.781,-3.625 h -1.031 l -1.766,8.297 h 1.031 l 0.829,-3.953 h 3.984 l -0.844,3.953 h 1.031 z"
         style="fill:#000000;fill-opacity:1;fill-rule:nonzero;stroke:none"
         id="path472" /><path
         d="M 114.262,2.703 C 114.246,1 113.074,0 111.074,0 c -1.922,0 -3.094,0.984 -3.094,2.563 0,1.062 0.563,1.734 1.704,2.031 l 2.156,0.578 c 1.109,0.281 1.609,0.719 1.609,1.406 0,0.469 -0.25,0.938 -0.625,1.203 -0.344,0.235 -0.89,0.375 -1.594,0.375 -0.953,0 -1.593,-0.234 -2.015,-0.734 -0.328,-0.375 -0.469,-0.797 -0.453,-1.328 h -1.047 c 0,0.797 0.156,1.312 0.515,1.797 0.594,0.812 1.594,1.25 2.922,1.25 1.047,0 1.891,-0.25 2.453,-0.672 0.579,-0.469 0.954,-1.25 0.954,-2 0,-1.078 -0.672,-1.86 -1.86,-2.188 l -2.187,-0.578 c -1.047,-0.297 -1.422,-0.625 -1.422,-1.297 0,-0.89 0.765,-1.468 1.937,-1.468 1.391,0 2.172,0.625 2.188,1.765 z"
         style="fill:#000000;fill-opacity:1;fill-rule:nonzero;stroke:none"
         id="path474" /><path
         d="m 121.504,8.281 c -0.109,0.016 -0.156,0.016 -0.203,0.016 -0.36,0 -0.547,-0.172 -0.547,-0.484 V 4.125 c 0,-1.109 -0.813,-1.703 -2.359,-1.703 -0.907,0 -1.657,0.25 -2.079,0.719 -0.281,0.328 -0.406,0.687 -0.421,1.312 h 1 c 0.078,-0.765 0.531,-1.109 1.468,-1.109 0.891,0 1.407,0.328 1.407,0.922 v 0.265 c 0,0.422 -0.25,0.594 -1.047,0.688 -1.407,0.187 -1.625,0.234 -2,0.39 -0.735,0.297 -1.11,0.86 -1.11,1.672 0,1.141 0.797,1.86 2.063,1.86 0.781,0 1.422,-0.282 2.125,-0.922 0.062,0.625 0.375,0.922 1.031,0.922 0.203,0 0.359,-0.032 0.672,-0.11 z m -1.734,-1.39 c 0,0.328 -0.11,0.531 -0.407,0.812 -0.406,0.375 -0.89,0.563 -1.484,0.563 -0.766,0 -1.219,-0.375 -1.219,-1.016 0,-0.656 0.438,-0.984 1.5,-1.141 1.047,-0.14 1.266,-0.187 1.61,-0.343 z"
         style="fill:#000000;fill-opacity:1;fill-rule:nonzero;stroke:none"
         id="path476" /><path
         d="m 124.789,2.594 h -1.016 V 0.875 h -1 v 1.719 h -0.843 v 0.812 h 0.843 v 4.735 c 0,0.64 0.438,1 1.204,1 0.25,0 0.484,-0.032 0.812,-0.094 V 8.219 c -0.125,0.031 -0.281,0.047 -0.469,0.047 -0.437,0 -0.547,-0.125 -0.547,-0.563 V 3.406 h 1.016 z"
         style="fill:#000000;fill-opacity:1;fill-rule:nonzero;stroke:none"
         id="path478" /><path
         d="M 130.848,8.859 V 2.594 h -1 v 3.547 c 0,1.281 -0.672,2.125 -1.703,2.125 -0.797,0 -1.297,-0.485 -1.297,-1.235 V 2.594 h -0.985 v 4.828 c 0,1.047 0.766,1.719 1.985,1.719 0.922,0 1.515,-0.328 2.093,-1.157 v 0.875 z"
         style="fill:#000000;fill-opacity:1;fill-rule:nonzero;stroke:none"
         id="path480" /><path
         d="m 132.559,2.594 v 6.265 h 1 v -3.25 c 0,-0.89 0.234,-1.484 0.703,-1.828 0.312,-0.234 0.609,-0.297 1.312,-0.312 V 2.453 c -0.172,-0.031 -0.265,-0.031 -0.39,-0.031 -0.641,0 -1.141,0.375 -1.704,1.312 v -1.14 z"
         style="fill:#000000;fill-opacity:1;fill-rule:nonzero;stroke:none"
         id="path482" /><path
         d="m 141.984,8.281 c -0.109,0.016 -0.156,0.016 -0.203,0.016 -0.359,0 -0.547,-0.172 -0.547,-0.484 V 4.125 c 0,-1.109 -0.812,-1.703 -2.359,-1.703 -0.906,0 -1.656,0.25 -2.078,0.719 -0.281,0.328 -0.406,0.687 -0.422,1.312 h 1 c 0.078,-0.765 0.531,-1.109 1.469,-1.109 0.89,0 1.406,0.328 1.406,0.922 v 0.265 c 0,0.422 -0.25,0.594 -1.047,0.688 -1.406,0.187 -1.625,0.234 -2,0.39 -0.734,0.297 -1.109,0.86 -1.109,1.672 0,1.141 0.797,1.86 2.062,1.86 0.782,0 1.422,-0.282 2.125,-0.922 0.063,0.625 0.375,0.922 1.032,0.922 0.203,0 0.359,-0.032 0.671,-0.11 z m -1.734,-1.39 c 0,0.328 -0.109,0.531 -0.406,0.812 -0.406,0.375 -0.891,0.563 -1.485,0.563 -0.765,0 -1.218,-0.375 -1.218,-1.016 0,-0.656 0.437,-0.984 1.5,-1.141 1.047,-0.14 1.265,-0.187 1.609,-0.343 z"
         style="fill:#000000;fill-opacity:1;fill-rule:nonzero;stroke:none"
         id="path484" /><path
         d="m 145.27,2.594 h -1.016 V 0.875 h -1 v 1.719 h -0.844 v 0.812 h 0.844 v 4.735 c 0,0.64 0.437,1 1.203,1 0.25,0 0.484,-0.032 0.813,-0.094 V 8.219 c -0.125,0.031 -0.282,0.047 -0.469,0.047 -0.438,0 -0.547,-0.125 -0.547,-0.563 V 3.406 h 1.016 z"
         style="fill:#000000;fill-opacity:1;fill-rule:nonzero;stroke:none"
         id="path486" /><path
         d="m 151.688,6.063 c 0,-0.954 -0.063,-1.532 -0.25,-2 -0.407,-1.032 -1.36,-1.641 -2.532,-1.641 -1.734,0 -2.859,1.328 -2.859,3.391 0,2.062 1.078,3.328 2.844,3.328 1.422,0 2.422,-0.813 2.672,-2.188 h -1 c -0.282,0.828 -0.844,1.266 -1.641,1.266 -0.641,0 -1.172,-0.297 -1.5,-0.813 -0.25,-0.359 -0.328,-0.718 -0.344,-1.343 z M 147.109,5.25 c 0.079,-1.156 0.782,-1.906 1.782,-1.906 0.984,0 1.734,0.812 1.734,1.828 0,0.031 0,0.047 0,0.078 z"
         style="fill:#000000;fill-opacity:1;fill-rule:nonzero;stroke:none"
         id="path488" /><path
         d="m 158.133,0.141 h -1 v 3.25 c -0.422,-0.641 -1.078,-0.969 -1.922,-0.969 -1.625,0 -2.688,1.297 -2.688,3.297 0,2.109 1.032,3.422 2.719,3.422 0.86,0 1.469,-0.328 2,-1.11 v 0.828 h 0.891 z m -2.75,3.203 c 1.078,0 1.75,0.969 1.75,2.453 0,1.453 -0.688,2.406 -1.75,2.406 -1.094,0 -1.828,-0.969 -1.828,-2.422 0,-1.468 0.734,-2.437 1.828,-2.437 z"
         style="fill:#000000;fill-opacity:1;fill-rule:nonzero;stroke:none"
         id="path490" /><path
         d="m 167.414,4.344 c -0.016,-1.235 -0.828,-1.922 -2.266,-1.922 -1.468,0 -2.406,0.75 -2.406,1.906 0,0.985 0.5,1.453 1.985,1.813 l 0.937,0.218 c 0.688,0.172 0.969,0.422 0.969,0.875 0,0.579 -0.594,0.985 -1.469,0.985 -0.531,0 -0.984,-0.156 -1.234,-0.422 C 163.773,7.609 163.695,7.438 163.633,7 h -1.047 c 0.047,1.438 0.859,2.141 2.5,2.141 1.578,0 2.578,-0.782 2.578,-1.985 0,-0.937 -0.531,-1.453 -1.766,-1.75 l -0.953,-0.234 c -0.812,-0.188 -1.156,-0.453 -1.156,-0.891 0,-0.578 0.5,-0.937 1.313,-0.937 0.812,0 1.234,0.344 1.265,1 z"
         style="fill:#000000;fill-opacity:1;fill-rule:nonzero;stroke:none"
         id="path492" /><path
         d="m 171.188,2.594 h -1.016 V 0.875 h -1 v 1.719 h -0.844 v 0.812 h 0.844 v 4.735 c 0,0.64 0.437,1 1.203,1 0.25,0 0.484,-0.032 0.813,-0.094 V 8.219 c -0.125,0.031 -0.282,0.047 -0.469,0.047 -0.438,0 -0.547,-0.125 -0.547,-0.563 V 3.406 h 1.016 z"
         style="fill:#000000;fill-opacity:1;fill-rule:nonzero;stroke:none"
         id="path494" /><path
         d="m 177.605,6.063 c 0,-0.954 -0.062,-1.532 -0.25,-2 -0.406,-1.032 -1.359,-1.641 -2.531,-1.641 -1.734,0 -2.859,1.328 -2.859,3.391 0,2.062 1.078,3.328 2.844,3.328 1.421,0 2.421,-0.813 2.671,-2.188 h -1 c -0.281,0.828 -0.843,1.266 -1.64,1.266 -0.641,0 -1.172,-0.297 -1.5,-0.813 -0.25,-0.359 -0.328,-0.718 -0.344,-1.343 z M 173.027,5.25 c 0.078,-1.156 0.782,-1.906 1.782,-1.906 0.984,0 1.734,0.812 1.734,1.828 0,0.031 0,0.047 0,0.078 z"
         style="fill:#000000;fill-opacity:1;fill-rule:nonzero;stroke:none"
         id="path496" /><path
         d="m 184.52,8.281 c -0.11,0.016 -0.157,0.016 -0.204,0.016 -0.359,0 -0.546,-0.172 -0.546,-0.484 V 4.125 c 0,-1.109 -0.813,-1.703 -2.36,-1.703 -0.906,0 -1.656,0.25 -2.078,0.719 -0.281,0.328 -0.406,0.687 -0.422,1.312 h 1 c 0.078,-0.765 0.531,-1.109 1.469,-1.109 0.891,0 1.406,0.328 1.406,0.922 v 0.265 c 0,0.422 -0.25,0.594 -1.047,0.688 -1.406,0.187 -1.625,0.234 -2,0.39 -0.734,0.297 -1.109,0.86 -1.109,1.672 0,1.141 0.797,1.86 2.062,1.86 0.782,0 1.422,-0.282 2.125,-0.922 0.063,0.625 0.375,0.922 1.032,0.922 0.203,0 0.359,-0.032 0.672,-0.11 z m -1.735,-1.39 c 0,0.328 -0.109,0.531 -0.406,0.812 -0.406,0.375 -0.891,0.563 -1.484,0.563 -0.766,0 -1.219,-0.375 -1.219,-1.016 0,-0.656 0.437,-0.984 1.5,-1.141 1.047,-0.14 1.265,-0.187 1.609,-0.343 z"
         style="fill:#000000;fill-opacity:1;fill-rule:nonzero;stroke:none"
         id="path498" /><path
         d="m 185.621,2.594 v 6.265 h 1 V 4.922 c 0,-0.906 0.656,-1.625 1.469,-1.625 0.734,0 1.156,0.453 1.156,1.25 v 4.312 h 1 V 4.922 c 0,-0.906 0.656,-1.625 1.469,-1.625 0.734,0 1.172,0.453 1.172,1.25 v 4.312 h 1 V 4.156 c 0,-1.125 -0.641,-1.734 -1.813,-1.734 -0.844,0 -1.344,0.25 -1.937,0.953 -0.36,-0.672 -0.86,-0.953 -1.672,-0.953 -0.844,0 -1.391,0.312 -1.938,1.062 v -0.89 z"
         style="fill:#000000;fill-opacity:1;fill-rule:nonzero;stroke:none"
         id="path500" /><path
         d="m 195.781,7.609 v 1.25 h 0.703 v 0.219 c 0,0.828 -0.14,1.063 -0.703,1.078 v 0.453 c 0.828,0 1.25,-0.531 1.25,-1.562 V 7.609 Z"
         style="fill:#000000;fill-opacity:1;fill-rule:nonzero;stroke:none"
         id="path502" /><path
         d="m 201.957,8.109 v 0.75 h 4.688 V 8.047 h -2.141 c -0.141,0 -0.281,0.016 -0.422,0.016 h -1.281 c 0.312,-0.329 1.422,-1.422 2.203,-2.125 0.875,-0.766 1.641,-1.516 1.641,-2.61 0,-1.328 -0.922,-2.547 -2.5,-2.547 -1.297,0 -1.954,0.844 -2.282,1.953 0.391,0.485 0.391,0.5 0.5,0.657 0.297,-1.282 0.735,-1.875 1.625,-1.875 1.032,0 1.688,0.812 1.688,1.828 0,0.625 -0.25,1.312 -1.047,2.109 z"
         style="fill:#000000;fill-opacity:1;fill-rule:nonzero;stroke:none"
         id="path504" /><path
         d="m 212.594,4.969 c 0,-0.813 -0.047,-1.735 -0.344,-2.578 -0.516,-1.344 -1.453,-1.61 -2.094,-1.61 -0.765,0 -1.515,0.391 -1.968,1.344 -0.391,0.844 -0.469,1.813 -0.469,2.844 0,1.297 0.109,2.031 0.5,2.875 0.359,0.781 1.125,1.265 1.937,1.265 0.782,0 1.532,-0.421 1.938,-1.25 0.406,-0.859 0.5,-1.718 0.5,-2.89 z m -2.438,3.422 c -1.515,0 -1.515,-2.453 -1.515,-3.578 0,-0.766 0,-1.5 0.203,-2.188 0.297,-0.844 0.812,-1.125 1.312,-1.125 1.532,0 1.532,2.219 1.532,3.313 0,0.765 0,1.562 -0.219,2.296 -0.328,1.157 -1,1.282 -1.313,1.282 z"
         style="fill:#000000;fill-opacity:1;fill-rule:nonzero;stroke:none"
         id="path506" /><path
         d="m 215.719,0.141 v 8.718 h 0.906 V 8.063 c 0.469,0.718 1.109,1.078 1.984,1.078 1.641,0 2.719,-1.36 2.719,-3.438 0,-2.031 -1.031,-3.281 -2.672,-3.281 -0.859,0 -1.468,0.312 -1.937,1.016 V 0.141 Z m 2.734,3.203 c 1.125,0 1.844,0.969 1.844,2.469 0,1.421 -0.75,2.39 -1.844,2.39 -1.047,0 -1.734,-0.953 -1.734,-2.422 0,-1.468 0.687,-2.437 1.734,-2.437 z"
         style="fill:#000000;fill-opacity:1;fill-rule:nonzero;stroke:none"
         id="path508" /><path
         d="m 228.117,8.281 c -0.109,0.016 -0.156,0.016 -0.203,0.016 -0.359,0 -0.547,-0.172 -0.547,-0.484 V 4.125 c 0,-1.109 -0.812,-1.703 -2.359,-1.703 -0.906,0 -1.656,0.25 -2.078,0.719 -0.282,0.328 -0.407,0.687 -0.422,1.312 h 1 c 0.078,-0.765 0.531,-1.109 1.469,-1.109 0.89,0 1.406,0.328 1.406,0.922 v 0.265 c 0,0.422 -0.25,0.594 -1.047,0.688 -1.406,0.187 -1.625,0.234 -2,0.39 -0.734,0.297 -1.109,0.86 -1.109,1.672 0,1.141 0.796,1.86 2.062,1.86 0.781,0 1.422,-0.282 2.125,-0.922 0.063,0.625 0.375,0.922 1.031,0.922 0.203,0 0.36,-0.032 0.672,-0.11 z m -1.734,-1.39 c 0,0.328 -0.11,0.531 -0.406,0.812 -0.407,0.375 -0.891,0.563 -1.485,0.563 -0.765,0 -1.219,-0.375 -1.219,-1.016 0,-0.656 0.438,-0.984 1.5,-1.141 1.047,-0.14 1.266,-0.187 1.61,-0.343 z"
         style="fill:#000000;fill-opacity:1;fill-rule:nonzero;stroke:none"
         id="path510" /><path
         d="m 229.199,2.594 v 6.265 h 1 v -3.25 c 0,-0.89 0.235,-1.484 0.703,-1.828 0.313,-0.234 0.61,-0.297 1.313,-0.312 V 2.453 c -0.172,-0.031 -0.266,-0.031 -0.391,-0.031 -0.64,0 -1.14,0.375 -1.703,1.312 v -1.14 z"
         style="fill:#000000;fill-opacity:1;fill-rule:nonzero;stroke:none"
         id="path512" /><path
         d="m 0.094,22.141 v 0.75 h 4.687 v -0.813 h -2.14 c -0.141,0 -0.282,0.016 -0.422,0.016 H 0.938 c 0.312,-0.328 1.421,-1.422 2.203,-2.125 0.875,-0.766 1.64,-1.516 1.64,-2.61 0,-1.328 -0.922,-2.546 -2.5,-2.546 -1.297,0 -1.953,0.843 -2.281,1.953 0.391,0.484 0.391,0.5 0.5,0.656 0.297,-1.281 0.734,-1.875 1.625,-1.875 1.031,0 1.688,0.812 1.688,1.828 0,0.625 -0.25,1.313 -1.047,2.109 z"
         style="fill:#000000;fill-opacity:1;fill-rule:nonzero;stroke:none"
         id="path514" /><path
         d="m 6.211,22.594 c 0.547,0.422 1.031,0.547 1.562,0.547 1.516,0 2.938,-1.641 2.938,-4.25 0,-3.25 -1.328,-4.078 -2.375,-4.078 -0.859,0 -1.359,0.39 -1.781,0.89 -0.578,0.688 -0.688,1.313 -0.688,2 0,1.547 0.797,2.844 1.875,2.844 0.875,0 1.547,-0.422 2,-0.984 -0.094,1.671 -0.875,2.859 -1.969,2.859 -0.5,0 -0.859,-0.156 -1.187,-0.469 z m 3.5,-4.906 c 0,0.093 0,0.203 0,0.296 0,0.907 -0.5,1.844 -1.5,1.844 -0.203,0 -0.734,0 -1.125,-0.703 C 6.867,18.688 6.82,18.344 6.82,17.703 c 0,-0.531 0,-1.031 0.36,-1.562 0.187,-0.266 0.5,-0.657 1.156,-0.657 1.141,0 1.344,1.625 1.375,2.204 z"
         style="fill:#000000;fill-opacity:1;fill-rule:nonzero;stroke:none"
         id="path516" /><path
         d="m 14.957,18.656 c 0.75,-0.218 1.469,-0.875 1.469,-1.765 0,-1.125 -1,-2.078 -2.281,-2.078 -1.313,0 -2.282,0.984 -2.282,2.078 0,0.89 0.735,1.547 1.469,1.765 -0.969,0.328 -1.625,1.125 -1.625,2.078 0,1.282 1.063,2.407 2.438,2.407 1.406,0 2.437,-1.141 2.437,-2.407 0,-0.953 -0.656,-1.75 -1.625,-2.078 z m -0.812,-0.359 c -0.938,0 -1.454,-0.625 -1.454,-1.391 0,-0.906 0.641,-1.422 1.454,-1.422 0.859,0 1.453,0.547 1.453,1.422 0,0.797 -0.547,1.391 -1.453,1.391 z m 0,4.125 c -0.797,0 -1.485,-0.578 -1.485,-1.688 0,-1.281 0.86,-1.718 1.485,-1.718 0.656,0 1.484,0.468 1.484,1.718 0,1.157 -0.719,1.688 -1.484,1.688 z"
         style="fill:#000000;fill-opacity:1;fill-rule:nonzero;stroke:none"
         id="path518" /><path
         d="m 19.184,22.875 v -0.953 h -0.969 v 0.969 h 0.297 l -0.297,1.5 h 0.469 z"
         style="fill:#000000;fill-opacity:1;fill-rule:nonzero;stroke:none"
         id="path520" /><path
         d="m 25.84,14.813 h -0.235 c -0.187,0.187 -0.765,0.75 -2.046,0.781 -0.172,0 -0.188,0 -0.188,0.219 v 0.484 c 0.734,0 1.281,-0.188 1.531,-0.297 v 6.203 h -1.453 v 0.688 h 3.844 V 22.203 H 25.84 Z"
         style="fill:#000000;fill-opacity:1;fill-rule:nonzero;stroke:none"
         id="path522" /><path
         d="m 29.973,15.797 h 3.062 v -0.734 h -3.922 v 4.39 h 0.782 c 0.296,-0.672 0.828,-0.937 1.312,-0.937 0.563,0 1.203,0.5 1.203,1.922 0,1.515 -0.859,1.984 -1.562,1.984 -0.657,0 -1.438,-0.359 -1.828,-1.109 l -0.391,0.64 c 0.797,1.125 1.906,1.188 2.234,1.188 1.407,0 2.578,-1.188 2.578,-2.672 0,-1.5 -1.015,-2.672 -2.218,-2.672 -0.485,0 -0.922,0.187 -1.25,0.484 z"
         style="fill:#000000;fill-opacity:1;fill-rule:nonzero;stroke:none"
         id="path524" /><path
         d="m 38.082,19.844 1.422,-1.422 3.062,4.469 h 1.313 l -3.578,-5.157 3.547,-3.562 H 42.41 l -4.328,4.422 v -4.422 h -1.125 v 8.719 h 1.125 z"
         style="fill:#000000;fill-opacity:1;fill-rule:nonzero;stroke:none"
         id="path526" /><path
         d="M 2.469,28.988 H 2.234 C 2.047,29.176 1.469,29.738 0.188,29.77 0.016,29.77 0,29.77 0,29.988 v 0.485 c 0.734,0 1.281,-0.188 1.531,-0.297 v 6.203 H 0.078 v 0.687 H 3.922 V 36.379 H 2.469 Z"
         style="fill:#000000;fill-opacity:1;fill-rule:nonzero;stroke:none"
         id="path528" /><path
         d="M 9.164,35.004 H 10.32 V 34.301 H 9.164 V 29.238 H 8.086 l -2.953,5.063 v 0.703 h 3.094 v 2.062 H 9.164 Z M 6.055,34.301 c 0.343,-0.61 0.812,-1.375 1.312,-2.344 0.141,-0.266 0.922,-1.734 0.922,-2.187 v 4.531 z"
         style="fill:#000000;fill-opacity:1;fill-rule:nonzero;stroke:none"
         id="path530" /><path
         d="m 14.34,28.348 h -1 v 8.718 h 1 v -2.437 l 0.969,-0.953 2.109,3.39 h 1.234 l -2.562,-4.093 2.187,-2.172 h -1.281 l -2.656,2.656 z"
         style="fill:#000000;fill-opacity:1;fill-rule:nonzero;stroke:none"
         id="path532" /><path
         d="m 23.551,30.801 v 0.906 c -0.5,-0.734 -1.11,-1.078 -1.906,-1.078 -1.594,0 -2.672,1.375 -2.672,3.406 0,1.031 0.281,1.875 0.797,2.469 0.468,0.531 1.125,0.844 1.781,0.844 0.797,0 1.344,-0.344 1.906,-1.125 v 0.312 c 0,0.86 -0.109,1.375 -0.359,1.719 -0.266,0.359 -0.782,0.578 -1.391,0.578 -0.453,0 -0.859,-0.109 -1.125,-0.328 -0.234,-0.188 -0.328,-0.344 -0.391,-0.719 h -1.015 c 0.109,1.188 1.031,1.891 2.5,1.891 0.937,0 1.734,-0.297 2.14,-0.797 0.485,-0.578 0.657,-1.375 0.657,-2.844 v -5.234 z m -1.797,0.75 c 1.078,0 1.703,0.906 1.703,2.469 0,1.5 -0.641,2.406 -1.703,2.406 -1.078,0 -1.734,-0.922 -1.734,-2.438 0,-1.515 0.671,-2.437 1.734,-2.437 z"
         style="fill:#000000;fill-opacity:1;fill-rule:nonzero;stroke:none"
         id="path534" /><path
         d="m 28.012,28.348 -2.828,8.953 h 0.656 l 2.828,-8.953 z"
         style="fill:#000000;fill-opacity:1;fill-rule:nonzero;stroke:none"
         id="path536" /><path
         d="m 33.836,32.551 c -0.016,-1.235 -0.828,-1.922 -2.266,-1.922 -1.468,0 -2.406,0.75 -2.406,1.906 0,0.985 0.5,1.453 1.984,1.813 l 0.938,0.218 c 0.687,0.172 0.969,0.422 0.969,0.875 0,0.579 -0.594,0.985 -1.469,0.985 -0.531,0 -0.984,-0.156 -1.234,-0.422 -0.157,-0.188 -0.235,-0.359 -0.297,-0.797 h -1.047 c 0.047,1.438 0.859,2.141 2.5,2.141 1.578,0 2.578,-0.782 2.578,-1.985 0,-0.937 -0.531,-1.453 -1.766,-1.75 l -0.953,-0.234 c -0.812,-0.188 -1.156,-0.453 -1.156,-0.891 0,-0.578 0.5,-0.937 1.312,-0.937 0.813,0 1.235,0.344 1.266,1 z"
         style="fill:#000000;fill-opacity:1;fill-rule:nonzero;stroke:none"
         id="path538" /></g></g></svg>
